# AST/ASF file generated using VICON BodyLanguage
# -----------------------------------------------
:version 1.10
:name VICON
:units
  mass 1.0
  length 0.45
  angle deg
:documentation
   .ast/.asf automatically generated from VICON data using
   VICON BodyBuilder and BodyLanguage model FoxedUp or BRILLIANT.MOD
:root
   order TX TY TZ RX RY RZ
   axis XYZ
   position 0 0 0  
   orientation 0 0 0 
:bonedata
  begin
     id 1 
     name lhipjoint
     direction 0.662698 -0.695252 0.27831 
     length 2.53073 
     axis 0 0 0  XYZ
  end
  begin
     id 2 
     name lfemur
     direction 0.34202 -0.939693 0  
     length 7.16147  
     axis 0 0 20  XYZ
    dof rx ry rz
    limits (-160.0 20.0)
           (-70.0 70.0)
           (-60.0 70.0)
  end
  begin
     id 3 
     name ltibia
     direction 0.34202 -0.939693 0   
     length 7.63967   
     axis 0 0 20   XYZ
    dof rx
    limits (-10.0 170.0)
  end
  begin
     id 4 
     name lfoot
     direction 0.0938457 -0.257721 0.961651   
     length 1.89793   
     axis -90 7.62852e-016 20   XYZ
    dof rx rz
    limits (-45.0 90.0)
           (-70.0 20.0)
  end
  begin
     id 5 
     name ltoes
     direction -0.00116841 -0.0030592 0.999995   
     length 0.955649   
     axis -90 7.62852e-016 20   XYZ
    dof rx
    limits (-90.0 20.0)
  end
  begin
     id 6 
     name rhipjoint
     direction -0.649445 -0.705948 0.282592   
     length 2.49238  
     axis 0 0 0  XYZ 
  end
  begin
     id 7 
     name rfemur
     direction -0.34202 -0.939693 0   
     length 6.90728   
     axis 0 0 -20   XYZ
    dof rx ry rz
    limits (-160.0 20.0)
           (-70.0 70.0)
           (-70.0 60.0)
  end
  begin
     id 8 
     name rtibia
     direction -0.34202 -0.939693 0   
     length 7.72868   
     axis 0 0 -20   XYZ
    dof rx
    limits (-10.0 170.0)
 end
 begin
     id 9 
     name rfoot
     direction -0.0920068 -0.252865 0.963117   
     length 1.97476  
     axis -90 -7.62852e-016 -20   XYZ
    dof rx rz
    limits (-45.0 90.0)
           (-20.0 70.0)
  end
  begin
     id 10 
     name rtoes
     direction 0.000391322 0.00230649 0.999997   
     length 0.992641   
     axis -90 -7.62852e-016 -20   XYZ
    dof rx
    limits (-90.0 20.0)
  end
  begin
     id 11 
     name lowerback
     direction -0.00875327 0.998321 -0.0572635   
     length 2.20024   
     axis 0 0 0   XYZ
    dof rx ry rz
    limits (-20.0 45.0)
           (-30.0 30.0)
           (-30.0 30.0)
  end
  begin
     id 12 
     name upperback
     direction 0.00753931 0.999972 -0.000360425   
     length 2.20538   
     axis 0 0 0   XYZ
    dof rx ry rz
    limits (-20.0 45.0)
           (-30.0 30.0)
           (-30.0 30.0)
  end
  begin
     id 13 
     name thorax
     direction 0.0117767 0.999601 0.0256663   
     length 2.21508   
     axis 0 0 0   XYZ
    dof rx ry rz
    limits (-20.0 45.0)
           (-30.0 30.0)
           (-30.0 30.0)
  end
  begin
     id 14 
     name lowerneck
     direction 0.060228 0.994909 0.0807986   
     length 1.7607   
     axis 0 0 0   XYZ
    dof rx ry rz
    limits (-20.0 45.0)
           (-30.0 30.0)
           (-30.0 30.0)
  end
  begin
     id 15 
     name upperneck
     direction -0.0563647 0.959594 -0.275685   
     length 1.75612   
     axis 0 0 0   XYZ
    dof rx ry rz
    limits (-20.0 45.0)
           (-30.0 30.0)
           (-30.0 30.0)
  end
  begin
     id 16
     name head
     direction -0.0161544 0.99458 -0.102714  
     length 1.79288  
     axis 0 0 0   XYZ
    dof rx ry rz
    limits (-20.0 45.0)
           (-30.0 30.0)
           (-30.0 30.0)
  end
  begin
     id 17 
     name lclavicle
     direction 0.93913 0.332189 -0.087669  
     length 3.52087  
     axis 0 0 0   XYZ
    dof ry rz
    limits (-20.0 10.0)
           (0.0 20.0)
  end
  begin
     id 18 
     name lhumerus
     direction 1 -4.48974e-011 -2.70836e-027   
     length 5.35289   
     axis -180 -30 -90   XYZ
    dof rx ry rz
    limits (-60.0 90.0)
           (-90.0 90.0)
           (-90.0 90.0)
  end
  begin
     id 19
     name lradius
     direction 1 -4.48961e-011 -9.76021e-027   
     length 3.27727   
     axis -180 -30 -90   XYZ
    dof rx
    limits (-10.0 170.0)
  end
  begin
     id 20
     name lwrist
     direction 1 -4.49103e-011 -2.23668e-026   
     length 1.63864   
     axis 1.44924e-014 90 90   XYZ
    dof ry
    limits (-180.0 0.0)
 end
  begin
     id 21 
     name lhand
     direction 1 3.0697e-005 0.000161777   
     length 0.54443   
     axis 2.85318e-014 90 90   XYZ
    dof rx rz
    limits (-90.0 90.0)
           (-45.0 45.0)
  end
  begin
     id 22 
     name lfingers
     direction 1 -4.49027e-011 -8.9447e-026   
     length 0.438912   
     axis 5.70628e-014 90 90   XYZ
    dof rx
    limits (0.0 90.0)
  end
  begin
     id 23
     name lthumb
     direction 0.707058 2.6516e-005 0.707156   
     length 0.630274   
     axis -90 45 -3.53137e-014   XYZ
    dof rx rz
    limits (-45.0 45.0)
           (-45.0 45.0)
  end
  begin
     id 24 
     name rclavicle
     direction -0.95274 0.284984 -0.105215   
     length 3.43401  
     axis 0 0 0   XYZ 
    dof ry rz
    limits (-10.0 20.0)
           (-20.0 0.0)
  end
  begin
     id 25 
     name rhumerus
     direction -0.999999 -0.000575019 -0.00106829  
     length 5.52077   
     axis -180 30 90   XYZ
    dof rx ry rz
    limits (-90.0 60.0)
           (-90.0 90.0)
           (-90.0 90.0)
  end
  begin
     id 26 
     name rradius
     direction -1 -4.4879e-011 -6.35415e-027   
     length 3.32364   
     axis -180 30 90   XYZ
    dof rx
    limits (-10.0 170.0)
  end
  begin
     id 27 
     name rwrist
     direction -1 -4.49048e-011 -9.98542e-027   
     length 1.66182   
     axis 6.32482e-015 -90 -90   XYZ
    dof ry
    limits (-180.0 0.0)
  end
  begin
     id 28
     name rhand
     direction -1 -4.48978e-011 -1.99771e-026   
     length 0.732235   
     axis 1.27479e-014 -90 -90   XYZ
    dof rx rz
    limits (-90.0 90.0)
           (-45.0 45.0)
  end
  begin
     id 29
     name rfingers
     direction -1 -4.49144e-011 -3.99245e-026   
     length 0.590347   
     axis 2.5496e-014 -90 -90   XYZ
    dof rx
    limits (0.0 90.0)
  end
  begin
     id 30
     name rthumb
     direction -0.707107 -6.35121e-011 0.707107   
     length 0.847624   
     axis -90 -45 -2.82974e-014   XYZ
    dof rx rz
    limits (-45.0 45.0)
           (-45.0 45.0)
  end
:hierarchy
  begin
    root lhipjoint rhipjoint lowerback
    lhipjoint lfemur
    lfemur ltibia
    ltibia lfoot
    lfoot ltoes
    rhipjoint rfemur
    rfemur rtibia
    rtibia rfoot
    rfoot rtoes
    lowerback upperback
    upperback thorax
    thorax lowerneck lclavicle rclavicle
    lowerneck upperneck
    upperneck head
    lclavicle lhumerus
    lhumerus lradius
    lradius lwrist
    lwrist lhand lthumb
    lhand lfingers
    rclavicle rhumerus
    rhumerus rradius
    rradius rwrist
    rwrist rhand rthumb
    rhand rfingers
  end

#!OML:ASF G:\Work\Work\Patient Classification 1\Elijah\terrain1\Elijah.ASF
:FULLY-SPECIFIED
:DEGREES
1181
root 8.23704 22.2044 -22.5736 344.326 -78.8882 31.0775
lowerback 3.88037 0.369927 -4.01844
upperback 0.25927 0.298432 -0.486596
thorax -1.92803 0.177087 1.73696
lowerneck -5.19118 19.3865 14.7909
upperneck 26.277 30.9157 -20.0243
head 16.1625 13.0973 -4.58046
rclavicle 3.97569e-015 -9.54166e-015
rhumerus -40.3138 0.914309 -83.3765
rradius 36.8638
rwrist -4.24108
rhand -14.7975 23.2342
rfingers 7.12502
rthumb 11.3601 -6.43807
lclavicle 3.97569e-015 -9.54166e-015
lhumerus -34.1533 0.861673 78.1274
lradius 41.1342
lwrist 10.7172
lhand -18.2562 26.6164
lfingers 7.12502
lthumb 8.02306 56.4441
rfemur -56.3552 3.66878 13.7871
rtibia 75.703
rfoot -16.8013 0.00413396
rtoes -18.9076
lfemur -27.0686 -9.33513 -29.7887
ltibia 45.5662
lfoot -24.6248 0.263176
ltoes -33.0985
1182
root 8.17308 22.2337 -22.5741 346.598 -78.5266 28.7408
lowerback 3.87091 0.420359 -3.69851
upperback 0.326238 0.382296 -0.472176
thorax -1.85666 0.21435 1.56818
lowerneck -5.52623 19.2963 14.692
upperneck 26.4553 30.7169 -19.7183
head 16.1695 12.998 -4.47578
rclavicle -1.78906e-014 2.78299e-015
rhumerus -40.214 0.207331 -83.294
rradius 36.8892
rwrist -4.18439
rhand -15.051 23.2254
rfingers 7.12502
rthumb 11.1156 -6.46025
lclavicle -1.78906e-014 2.78299e-015
lhumerus -33.8398 0.304668 78.3896
lradius 40.6641
lwrist 11.5272
lhand -13.8555 26.6926
lfingers 7.12502
lthumb 12.2684 56.3127
rfemur -56.0824 4.87803 13.3563
rtibia 73.0854
rfoot -17.0411 0.753068
rtoes -19.5688
lfemur -26.7113 -8.99318 -29.2912
ltibia 45.3095
lfoot -23.9943 -6.37592
ltoes -23.7797
1183
root 8.10324 22.2708 -22.5724 351.145 -78.077 24.1495
lowerback 3.80371 0.356852 -2.83889
upperback 0.315123 0.341851 -0.341663
thorax -1.82361 0.188571 1.22306
lowerneck -5.66675 19.2892 15.0604
upperneck 26.6808 30.7016 -19.6681
head 16.3733 13.0029 -4.49383
rclavicle 8.15017e-015 -1.23246e-014
rhumerus -40.2739 -0.0751879 -83.4304
rradius 37.0372
rwrist -4.8557
rhand -15.6289 23.1345
rfingers 7.12502
rthumb 10.5582 -6.58029
lclavicle 8.15017e-015 -1.23246e-014
lhumerus -33.6226 -0.349035 78.6663
lradius 40.0435
lwrist 12.1476
lhand -16.1262 26.8946
lfingers 7.12502
lthumb 10.0784 56.6333
rfemur -55.6604 5.99178 13.3793
rtibia 70.3185
rfoot -17.4808 1.4607
rtoes -20.1557
lfemur -26.268 -11.6512 -28.1077
ltibia 44.9798
lfoot -23.3523 -6.6929
ltoes -18.344
1184
root 8.03536 22.2961 -22.5695 353.773 -77.4816 21.4167
lowerback 3.85737 0.208035 -2.37965
upperback 0.285807 0.164772 -0.215481
thorax -1.8752 0.0984652 1.10448
lowerneck -5.51926 19.2396 14.9808
upperneck 26.5998 30.6216 -19.6569
head 16.26 12.9834 -4.51669
rclavicle 3.37934e-014 1.47101e-014
rhumerus -40.3797 0.104381 -83.5516
rradius 37.1885
rwrist -5.53126
rhand -15.8279 23.105
rfingers 7.12502
rthumb 10.3661 -6.61948
lclavicle 3.37934e-014 1.47101e-014
lhumerus -33.5698 0.00188479 78.7589
lradius 39.3457
lwrist 11.6415
lhand -18.8026 27.5436
lfingers 7.12502
lthumb 7.49573 57.3908
rfemur -55.1907 7.09119 12.9938
rtibia 67.5694
rfoot -17.8995 2.35663
rtoes -21.9736
lfemur -25.8486 -12.2434 -27.4696
ltibia 44.7449
lfoot -20.1846 -13.1366
ltoes -6.63067
